<svg xmlns="http://www.w3.org/2000/svg" viewBox="0 0 594.07 433.89"><defs><style>.cls-1{fill:#3f3d56;}.cls-2{fill:#6c63ff;}</style></defs><g id="Layer_2" data-name="Layer 2"><g id="ae5f5559-570c-4c14-9324-22f1786600a2"><rect class="cls-1" x="146.86" y="-49.27" width="300.35" height="532.43" transform="translate(7.45 443.74) rotate(-74.21)"/><circle class="cls-2" cx="90.58" cy="12.09" r="4.24"/><circle class="cls-2" cx="103.64" cy="15.78" r="4.24"/><circle class="cls-2" cx="116.71" cy="19.48" r="4.24"/><path class="cls-2" d="M353.63,183.39a49.48,49.48,0,0,0-20.7.49A49.31,49.31,0,0,0,334.39,163a49.1,49.1,0,0,0-18.5,11.94A49.23,49.23,0,0,0,306.38,155a49.49,49.49,0,0,0-9.71,18.59,49.72,49.72,0,0,0-17.38-11.26s-3.09,15.72,4.34,28.62c6.63,11.47,19.35,16.85,22.07,17.89l.06.08,0,0,.43.15.14-.84.15-.19,0,.25c-.22.5-.32.78-.32.78l.45.1v.05l.1,0c2.86.54,16.51,2.63,28.16-3.68C348,198.4,353.63,183.39,353.63,183.39Z"/><circle class="cls-2" cx="328.24" cy="132.21" r="11.03"/><rect class="cls-2" x="296.22" y="59.9" width="7.5" height="344.55" transform="translate(-5.07 457.65) rotate(-74.21)"/><rect class="cls-2" x="146.89" y="233.36" width="59.41" height="59.41" transform="translate(-124.6 361.41) rotate(-74.21)"/><rect class="cls-2" x="253.05" y="263.38" width="59.41" height="59.41" transform="translate(-76.22 485.41) rotate(-74.21)"/><rect class="cls-2" x="359.21" y="293.4" width="59.41" height="59.41" transform="translate(-27.83 609.42) rotate(-74.21)"/><rect class="cls-2" x="162.03" y="283.46" width="5.09" height="44.13" transform="translate(-174.2 380.76) rotate(-74.21)"/><rect class="cls-2" x="268.2" y="313.48" width="5.09" height="44.13" transform="translate(-125.82 504.77) rotate(-74.21)"/><rect class="cls-2" x="374.36" y="343.51" width="5.09" height="44.13" transform="translate(-77.43 628.77) rotate(-74.21)"/></g></g></svg>