<svg xmlns="http://www.w3.org/2000/svg" xmlns:xlink="http://www.w3.org/1999/xlink" viewBox="0 0 407.03 454.29"><defs><style>.cls-1{fill:url(#linear-gradient);}.cls-2{fill:#eceff1;}.cls-3{fill:#64ffda;}.cls-4{opacity:0.7;}.cls-5{opacity:0.6;}.cls-6{opacity:0.5;}.cls-7{opacity:0.4;}.cls-8{opacity:0.3;}.cls-9{fill:#1565c0;}.cls-10{fill:url(#linear-gradient-2);}.cls-11{fill:url(#linear-gradient-3);}.cls-12{fill:url(#linear-gradient-4);}</style><linearGradient id="linear-gradient" x1="203.52" y1="-60.33" x2="203.52" y2="393.96" gradientTransform="matrix(1, 0, 0, -1, 0, 393.96)" gradientUnits="userSpaceOnUse"><stop offset="0" stop-color="gray" stop-opacity="0.25"/><stop offset="0.54" stop-color="gray" stop-opacity="0.12"/><stop offset="1" stop-color="gray" stop-opacity="0.1"/></linearGradient><linearGradient id="linear-gradient-2" x1="344.58" y1="274.98" x2="344.58" y2="354.32" xlink:href="#linear-gradient"/><linearGradient id="linear-gradient-3" x1="344.58" y1="127.42" x2="344.58" y2="206.76" xlink:href="#linear-gradient"/><linearGradient id="linear-gradient-4" x1="344.58" y1="-19.15" x2="344.58" y2="60.19" xlink:href="#linear-gradient"/></defs><g id="Layer_2" data-name="Layer 2"><g id="b4507652-300d-4dad-b4e7-3391f5529675"><rect class="cls-1" width="407.03" height="454.29"/><rect class="cls-2" x="6.73" y="303.31" width="393.58" height="141.09"/><rect class="cls-3" x="39.03" y="336.78" width="15.25" height="72.29"/><g class="cls-4"><rect class="cls-3" x="69.14" y="336.78" width="15.25" height="72.29"/></g><g class="cls-5"><rect class="cls-3" x="99.25" y="336.78" width="15.25" height="72.29"/></g><g class="cls-6"><rect class="cls-3" x="129.36" y="336.78" width="15.25" height="72.29"/></g><g class="cls-6"><rect class="cls-3" x="159.47" y="336.78" width="15.25" height="72.29"/></g><g class="cls-7"><rect class="cls-3" x="189.58" y="336.78" width="15.25" height="72.29"/></g><g class="cls-8"><rect class="cls-3" x="219.68" y="336.78" width="15.25" height="72.29"/></g><circle class="cls-9" cx="344.58" cy="372.46" r="36.8"/><rect class="cls-2" x="6.73" y="156.73" width="393.58" height="141.09"/><rect class="cls-3" x="39.03" y="190.2" width="15.25" height="72.29"/><g class="cls-4"><rect class="cls-3" x="69.14" y="190.2" width="15.25" height="72.29"/></g><g class="cls-5"><rect class="cls-3" x="99.25" y="190.2" width="15.25" height="72.29"/></g><g class="cls-6"><rect class="cls-3" x="129.36" y="190.2" width="15.25" height="72.29"/></g><g class="cls-6"><rect class="cls-3" x="159.47" y="190.2" width="15.25" height="72.29"/></g><g class="cls-7"><rect class="cls-3" x="189.58" y="190.2" width="15.25" height="72.29"/></g><g class="cls-8"><rect class="cls-3" x="219.68" y="190.2" width="15.25" height="72.29"/></g><circle class="cls-9" cx="344.58" cy="225.89" r="36.8"/><rect class="cls-2" x="6.73" y="10.16" width="393.58" height="141.09"/><rect class="cls-3" x="39.03" y="43.62" width="15.25" height="72.29"/><g class="cls-4"><rect class="cls-3" x="69.14" y="43.62" width="15.25" height="72.29"/></g><g class="cls-5"><rect class="cls-3" x="99.25" y="43.62" width="15.25" height="72.29"/></g><g class="cls-6"><rect class="cls-3" x="129.36" y="43.62" width="15.25" height="72.29"/></g><g class="cls-6"><rect class="cls-3" x="159.47" y="43.62" width="15.25" height="72.29"/></g><g class="cls-7"><rect class="cls-3" x="189.58" y="43.62" width="15.25" height="72.29"/></g><g class="cls-8"><rect class="cls-3" x="219.68" y="43.62" width="15.25" height="72.29"/></g><circle class="cls-10" cx="344.58" cy="79.31" r="39.67"/><circle class="cls-11" cx="344.58" cy="226.87" r="39.67"/><circle class="cls-12" cx="344.58" cy="373.44" r="39.67"/><circle class="cls-9" cx="344.58" cy="79.31" r="36.8"/></g></g></svg>