<svg xmlns="http://www.w3.org/2000/svg" viewBox="0 0 244.33 55.51"><defs><style>.cls-1{fill:#21609b;}</style></defs><g id="Layer_2" data-name="Layer 2"><g id="e8aabfee-d00f-44c0-b6f7-c40294f8dfa6"><path d="M234.07,4.1l10.26.06S225.26,30,223.7,32.11A12.33,12.33,0,0,0,222,34.44a53.19,53.19,0,0,0-2,7.32l-9.39.05s1.47-5.24,1.41-8c-.06-2.44-1.3-4.88-2-7.32s-1.67-7.33-1.67-7.33h9.66l1.33,5.33L234.07,4.1"/><path d="M214.65,9.55c1.89,1.15,3,7.44,3,7.44s-9.9.15-15.29.15h-4.66l-5.66,24.62h-8.65s5.38-26.76,6.65-31.61c.42-1.57,2.83-1.3,6.9-1.3h6.49c4.2,0,9.11-.54,11.17.7m-40.28,12a5.22,5.22,0,0,0-.91-3.41c-1-1.56-2-1.93-4.61-2-7.52-.24-7.37,5.33-7.37,5.33Zm8.15-6.38c1.1,4-1,13.31-1,13.31s-11-.18-17,0c-1.86.06-4.1-.21-4.65.66-.79,1.22.28,3.1,1.19,3.89s3.07,1,3.8,1.1c4.87.62,15.07.16,15.07.16l-1.76,7.83s-14.42.72-21.63-1a7.37,7.37,0,0,1-3.66-2,10.09,10.09,0,0,1-.69-1,8.59,8.59,0,0,1-1-1.72c-1.64-4.39.2-12.79,2-17.3.21-.52.47-1.18.75-1.75s.64-1.49.91-1.91.42-.48.61-.75a10.77,10.77,0,0,1,.73-.91,13.84,13.84,0,0,1,2.32-2c3-2.25,8.45-4,15-3.33,2.46.26,6.17,1.13,8,3.66a11.37,11.37,0,0,1,1,3ZM142.84,8.82l8.39-.05s-4.67,22.18-7.06,33h-9.65c-6.74,0-12.75.84-15.3-4s-.12-12.4,1-17.64c.79-3.7,2.44-11.28,2.44-11.28l8.7-.08s-2.46,11.8-3.48,17.69c-.37,2.1-1.12,4.09-.33,5.65s1.79,1.59,5,1.67c1,0,4.32,0,4.32,0l6-25m-39.26,16c.87-3.12,2.16-6.5,2-9.32a8,8,0,0,0-4.32-6.32,11.1,11.1,0,0,0-11.32,2.66c-2.36,2.56-3.15,5.54-4,9.65-.62,3.05-1.13,6.28,0,8.66,2,4.2,8.25,3.28,15,3.32,1-2.67,1.83-5.68,2.67-8.65Zm11.64-12.31c1,7-2.72,14.66-5.25,21.35,2.58.23,4.85,0,5,.15s-1.73,8-2.39,8c-2,0-8.84.1-11.68.1-9.24,0-17.88.61-22.29-4a14.49,14.49,0,0,1-3.33-7.32,31.06,31.06,0,0,1,1-11.31,34.12,34.12,0,0,1,3.33-8.66C83.5,4,90.26-1,101.58.17A21,21,0,0,1,108.9,2.5c.14.08.61.46.72.52,2.66,1.7,5.09,5.74,5.6,9.46ZM74.34,8.86c-.56,2.54-1.12,5.43-1.71,7.94H63.31c.72-2.78,1.28-5.56,2-8,3,0,5.75,0,9,0M63,19.13h9c-1.17,6.51-3.5,17-5.32,24.3-1.14,4.56-1.9,7.9-5,10.31-.28.22-.44.11-.67.33-.57.55-3.2,1.18-4.66,1.33a65.9,65.9,0,0,1-8,0c.76-2.79,1.62-6.13,2.3-8.63,7.1.86,7.28-5.85,8.65-12.31.79-3.73,3.2-13.81,3.66-15.31"/><path class="cls-1" d="M42,36.11l-.2.49C38.54,43,32.73,46.91,24.44,47.09a24.5,24.5,0,0,1-10-2,25.8,25.8,0,0,1-12-11.31C-1,27.13-1.58,17.89,5.56,11c.11,0-.87,1.5-.76,1.5l-.19.64C-.53,29.21,15.31,43,30.7,41.43A20.32,20.32,0,0,0,42,36.11"/><path class="cls-1" d="M32.7,29.45A14.69,14.69,0,0,0,43,25.12c-2.09,5.33-8.16,8.75-16.3,7.66-6.82-.91-13.31-7.77-14-14.64-.49-5,1.26-8,4.13-11.61a12.08,12.08,0,0,0-1.46,4.28C14.3,21.63,24,29.39,32.7,29.45"/><path class="cls-1" d="M42.62,16c-.6,1.38-4.06,4-5.6,4.32-6.06,1.29-9.94-1.58-12-4.86a15,15,0,0,1-1-2.16c-.78-2.68-.42-6.74,1.93-8.84a11,11,0,0,0-.44,5.83,12.93,12.93,0,0,0,1.61,3.5A9.06,9.06,0,0,0,30.84,17a9.47,9.47,0,0,0,1.84.89c1.52.45,4.75,1.63,10-1.91"/></g></g></svg>