<svg xmlns="http://www.w3.org/2000/svg" viewBox="0 0 266.44 631.09"><defs><style>.cls-1{fill:#ffb8b8;}.cls-2{fill:#2f2e41;}.cls-3{fill:#d0cde1;}.cls-4{fill:#3f3d56;}.cls-5{fill:#1565c0;}</style></defs><g id="Layer_2" data-name="Layer 2"><g id="Layer_1-2" data-name="Layer 1"><path class="cls-1" d="M157.72,145.53l-39,8.61L51.61,107.28S22.88,80.12,13.78,86c-8.12,5.26,2.79,30.54,19.55,33.38L96.8,181.87l59.82,6.07Z"/><polygon class="cls-1" points="150.28 558.59 153.28 600.59 182.28 598.59 177.28 558.59 150.28 558.59"/><path class="cls-2" d="M158.28,587.59s-4-15-8-14l-6,11s-27,25-35,26c0,0-26,8,0,20h30s20-1,24,0,27,1,28-5-3-18-3-18-3.69-29.5-7.84-23.75a77.84,77.84,0,0,1-7.16,8.75Z"/><polygon class="cls-1" points="225.28 559.09 228.28 601.09 257.28 599.09 252.28 559.09 225.28 559.09"/><path class="cls-2" d="M233.28,588.09s-4-15-8-14l-6,11s-27,25-35,26c0,0-26,8,0,20h30s20-2,24-1,27,1,28-5-3-17-3-17-3.69-29.5-7.84-23.75a77.84,77.84,0,0,1-7.16,8.75Z"/><path class="cls-2" d="M111.28,301.09l-5,7v14l32,119,6,26s0,100,6,100,33,3,33-3-2-142-2-142l27,51s12,90,16,91,32,0,34-6l-6-57s1-64-16-78c0,0-3-17-6-24s-8-11-5-16-4-60-4-60,2-17-2-22S111.28,301.09,111.28,301.09Z"/><circle class="cls-1" cx="175.28" cy="43.09" r="31"/><path class="cls-1" d="M194.78,61.59l-2,20,8,7-51,24c12.57-21.46,16.29-41,10-55Z"/><path class="cls-3" d="M159.78,91.59s-8,16,2,12l31-22s34,13,46,28l-10,106-8,75s5,9,4,10-2-1-1,2,4,0,1,3-6,0-3,3,0,4,0,4-4-24-39-6-50,23-76,1l30-114,2.43-43a176.4,176.4,0,0,1,7.61-42.31c2.29-7.43,6.28-14.72,13-18.69Z"/><path class="cls-1" d="M213.28,179.09l15,37-35,74s-8,9-3,20a132.71,132.71,0,0,0,9,17s9-4,9-21l51-73-4-60Z"/><path class="cls-3" d="M211.28,113.09s-14,14-8,36,11,39,11,39,24-18,44-7c0,0-3-65-20-71S211.28,113.09,211.28,113.09Z"/><path class="cls-2" d="M200.77,16.5S191.3-4,173.14.71s-28.41,11.84-29.2,18.94.39,17.76.39,17.76,2-14.6,14.6-11.44,32.37.79,32.37.79l3.15,28.41s5.39-5.74,9.33-2.58S213.4,22.81,200.77,16.5Z"/><path class="cls-4" d="M1.94,72.51h0L20.4,68.24a4,4,0,0,1,4.53,2.17l18.91,39.21a3.26,3.26,0,0,1-2,4.54L23,119.49a4.29,4.29,0,0,1-5.12-2.44L5.85,89l-.37.21L3.19,83.93l.38-.2L.2,75.91a2.48,2.48,0,0,1,1.3-3.26A2.25,2.25,0,0,1,1.94,72.51Z"/><path class="cls-5" d="M18.17,69.69l2.16-.5a2.79,2.79,0,0,1,3.14,1.52l18.46,39a1.72,1.72,0,0,1-.82,2.29l-.24.1-18.63,5.62a2.25,2.25,0,0,1-2.7-1.26L2.08,75.78a2,2,0,0,1,1-2.57l.33-.11,2-.47a1,1,0,0,1,1,.46h0a.79.79,0,0,0,.9.41l9.7-2.24a1.4,1.4,0,0,0,1.06-1.57Z"/></g></g></svg>