<svg xmlns="http://www.w3.org/2000/svg" viewBox="0 0 380.01 380"><defs><style>.cls-1{fill:#0277bd;}.cls-2{fill:#ffc107;}</style></defs><g id="Layer_2" data-name="Layer 2"><g id="Layer_1-2" data-name="Layer 1"><path class="cls-1" d="M194.84,0a214.9,214.9,0,0,0-39.36,3.67C117,10.37,110,24.44,110,50.37V90h90v20H63.07c-26.36,0-49.43,12.42-56.74,42.19-8.26,34.17-8.63,55.57,0,91.25,6.55,26.61,21,46.56,47.35,46.56H90V239c0-29.66,26.86-59,57.64-59H220c25.23,0,50-18.62,50-43.77V50.37C270,26,252.41,7.74,227.82,3.65,228.43,3.59,210.26-.06,194.84,0ZM145,40a15,15,0,1,1,0,30,15,15,0,1,1,0-30Z"/><path class="cls-2" d="M185.15,380a214.9,214.9,0,0,0,39.36-3.67C263,369.63,270,355.56,270,329.63V290H180V270H316.93c26.36,0,49.43-12.42,56.74-42.19,8.26-34.17,8.63-55.57,0-91.25C367.11,110,352.68,90,326.31,90H290v51c0,29.66-26.86,59-57.64,59H160c-25.23,0-50,18.62-50,43.77v85.86c0,24.39,17.59,42.63,42.18,46.72C151.56,376.41,169.73,380.06,185.15,380ZM235,340a15,15,0,1,1,0-30,15,15,0,1,1,0,30Z"/></g></g></svg>