<svg xmlns="http://www.w3.org/2000/svg" viewBox="0 0 153.2 137.8"><defs><style>.cls-1{fill:#fff;}.cls-2{fill:#53c1de;}</style></defs><g id="Layer_2" data-name="Layer 2"><g id="e8aabfee-d00f-44c0-b6f7-c40294f8dfa6"><path class="cls-1" d="M0,68.35C0,79.92,11.23,90.76,29,96.9c-3.61,17.9-.74,32.34,9,38,10,5.82,25,1.86,39.16-10.48,13.78,11.93,27.73,16.65,37.49,11,10-5.76,13.12-21.16,9.53-39.64,18.57-6.08,29-15.25,29-27,0-11.31-11.25-21.12-28.8-27.22,4-19.22.7-33.31-9.43-39.2-9.77-5.68-23.91-.8-38,11.35C62.46.78,48.48-3.22,38.32,2.62c-9.8,5.63-12.64,20.32-9.12,38.57C12,47.13,0,57.1,0,68.35Z"/><path class="cls-2" d="M120.66,47.61c-1.45-.5-2.91-1-4.38-1.39.25-1,.48-2,.69-3,3.37-16.08,1.24-29-6.15-33.34-7.09-4.12-18.71.11-30.46,10.28q-1.74,1.5-3.4,3.09c-.74-.71-1.49-1.4-2.25-2.09C62.46,10.23,50.16,5.59,42.75,9.85c-7.1,4.08-9.24,16.26-6.31,31.52.3,1.52.63,3,1,4.51-1.75.49-3.43,1-5,1.57-14.42,5-23.64,12.82-23.67,21,0,8.44,9.83,16.93,24.81,22.1,1.22.42,2.44.81,3.68,1.16q-.62,2.41-1.08,4.86c-2.9,15-.71,26.88,6.35,31,7.29,4.24,19.56,0,31.53-10.45q1.42-1.23,2.85-2.61,1.78,1.74,3.67,3.37c11.53,10,22.94,14,30,10,7.31-4.2,9.72-17,6.69-32.54-.23-1.19-.5-2.4-.81-3.64.87-.25,1.71-.51,2.54-.78,15.61-5.12,25.78-13.44,25.81-22,0-8.19-9.44-16.14-24.12-21.25Z"/><path class="cls-1" d="M117.16,85.33c-.75.24-1.51.48-2.29.7A136.91,136.91,0,0,0,108,68.78a137.4,137.4,0,0,0,6.68-17c1.39.41,2.74.84,4,1.29C131.33,57.48,139,63.91,139,68.85c0,5.26-8.33,12.06-21.81,16.48Zm-5.63,11c1.34,6.88,1.52,13.1.6,18-.82,4.37-2.46,7.27-4.48,8.43-4.3,2.47-13.46-.78-23.32-9.32-1.13-1-2.27-2-3.41-3.13A137.29,137.29,0,0,0,92.37,95.87a135.21,135.21,0,0,0,18.44-2.78c.27,1.12.51,2.22.72,3.29Zm-56.59,25.8c-4.19,1.46-7.53,1.5-9.54.33-4.29-2.49-6-12.05-3.57-24.86.3-1.52.63-3,1-4.52a136.41,136.41,0,0,0,18.33,2.72A140.42,140.42,0,0,0,72.8,110.31c-.85.82-1.71,1.61-2.6,2.38-5.29,4.6-10.59,7.86-15.26,9.49ZM35.43,85c-6.63-2.29-12.1-5.26-15.84-8.48-3.37-2.9-5.06-5.78-5.05-8.11,0-5,7.42-11.25,19.75-15.5,1.55-.54,3.11-1,4.69-1.46a139.12,139.12,0,0,0,6.58,17.2A140.91,140.91,0,0,0,38.79,86.1C37.66,85.77,36.54,85.42,35.43,85Zm6.72-44.76c-2.51-13.08-.79-22.93,3.5-25.39,4.56-2.62,14.61,1.17,25.19,10.62.67.6,1.35,1.24,2,1.89A140,140,0,0,0,61.24,41.71a141.05,141.05,0,0,0-18.17,2.76c-.34-1.39-.65-2.79-.92-4.19ZM100.79,55q-2-3.45-4.11-6.81c4.34.56,8.5,1.3,12.4,2.2a124.84,124.84,0,0,1-4.39,11.71q-1.87-3.59-3.9-7.1ZM76.94,31.57a121.34,121.34,0,0,1,8,9.69q-8-.4-16.08-.06c2.66-3.47,5.37-6.7,8.11-9.63ZM52.77,54.84c-1.34,2.31-2.62,4.65-3.86,7-1.68-4-3.11-8-4.28-11.79,3.88-.86,8-1.55,12.34-2.08Q54.8,51.38,52.77,54.84ZM57,89.59a123.45,123.45,0,0,1-12.53-2.06,126.89,126.89,0,0,1,4.45-12q1.83,3.57,3.83,7C54.07,85,55.49,87.29,57,89.59Zm19.9,16.55c-2.74-3-5.48-6.27-8.15-9.82q3.9.17,8,.18t8.21-.16A119.72,119.72,0,0,1,76.86,106.14ZM104.7,75.5a122.89,122.89,0,0,1,4.53,12,126.45,126.45,0,0,1-12.7,2.12q2.18-3.42,4.2-6.91T104.7,75.5Zm-9,4.28q-3.11,5.35-6.56,10.51c-4,.28-8.21.41-12.46.4s-8.35-.16-12.31-.43q-3.51-5.16-6.62-10.57T52,68.71q2.7-5.58,5.82-10.95h0q3.12-5.37,6.63-10.48c4-.29,8.2-.44,12.39-.43s8.37.19,12.41.51q3.45,5.13,6.53,10.49t5.83,10.93q-2.75,5.61-5.88,11Zm12.2-64.87c4.55,2.64,6.29,13.25,3.38,27.13-.19.91-.4,1.81-.62,2.7a141.33,141.33,0,0,0-18.18-2.93A136.69,136.69,0,0,0,81,27.42q1.53-1.47,3.14-2.86c10.07-8.71,19.47-12.13,23.74-9.65Z"/><path class="cls-2" d="M76.79,56.5A12.15,12.15,0,1,1,64.6,68.61h0A12.15,12.15,0,0,1,76.79,56.5h0"/></g></g></svg>