<svg xmlns="http://www.w3.org/2000/svg" viewBox="0 0 341.87 296.61"><defs><style>.cls-1{fill:#3f3d56;}.cls-2{fill:#2f2e41;}.cls-3{fill:#f2f2f2;}.cls-4{opacity:0.1;}.cls-4,.cls-8{isolation:isolate;}.cls-5{fill:#ffb9b9;}.cls-6{fill:#d0cde1;}.cls-7{fill:#1565c0;}.cls-8{opacity:0.05;}</style></defs><g id="Layer_2" data-name="Layer 2"><g id="a58ef234-55dd-4456-b368-278f056cc5c7"><path class="cls-1" d="M341.87,208.82c0,48.74-67.94,33.66-151.12,33.66s-150.1,15.08-150.1-33.66,67.93-59.34,151.1-59.34S341.87,160.08,341.87,208.82Z"/><path class="cls-2" d="M328,121.32l3.44,14.17a1,1,0,0,1,0,.48l-15.58,48.67a.88.88,0,0,1-1.72-.17l-2.15-19a1,1,0,0,1,0-.38l14.3-43.87a.89.89,0,0,1,1.12-.57A.9.9,0,0,1,328,121.32Z"/><polygon class="cls-3" points="326.73 122.52 329.9 134.67 316.16 179.06 312.99 165.32 326.73 122.52"/><path class="cls-2" d="M257.51,188.57c.53,1.58,54.95-.53,55.48-1.06a11.4,11.4,0,0,0,1.16-2.11c.5-1.06,1-2.12,1-2.12L313,166.17l-53.89-1.91s-1.35,14.5-1.62,21.14A16,16,0,0,0,257.51,188.57Z"/><polygon class="cls-4" points="306.12 168.49 307.18 183.28 283.4 183.28 283.4 168.49 306.12 168.49"/><polygon class="cls-4" points="275.48 173.24 275.62 173.22 274.95 179.58 261.74 179.58 261.74 173.24 275.48 173.24"/><path class="cls-4" d="M257.51,188.57c.53,1.58,54.95-.53,55.48-1.06a11.4,11.4,0,0,0,1.16-2.11H257.48A16,16,0,0,0,257.51,188.57Z"/><path class="cls-2" d="M173.51,133.09H188.3l36.46-14.27s25.89-10.56,23.77,9.51-5.81,47-5.81,47-11.62-5.29-18-3.7-2.12-32.23-2.12-32.23-51.78,24.83-56.53,21.66-5.81-25.36-5.81-25.36Z"/><path class="cls-4" d="M173.51,133.09H188.3l36.46-14.27s25.89-10.56,23.77,9.51-5.81,47-5.81,47-11.62-5.29-18-3.7-2.12-32.23-2.12-32.23-51.78,24.83-56.53,21.66-5.81-25.36-5.81-25.36Z"/><path class="cls-5" d="M196.81,86.76l17.91,25.72,41.74,34.87s38.57,9,33.28,15.33-37.51-6.34-37.51-6.34-48.08-34.88-49.66-37.52-19-27.47-19-27.47Z"/><path class="cls-4" d="M196.81,86.76l17.91,25.72,41.74,34.87s38.57,9,33.28,15.33-37.51-6.34-37.51-6.34-48.08-34.88-49.66-37.52-19-27.47-19-27.47Z"/><circle class="cls-5" cx="194.11" cy="34.81" r="23.78"/><path class="cls-5" d="M192.53,56S184.6,69.69,183,77.08s-23.78-14.79-23.78-14.79l-2.91-7.66s20.87-9.78,19.29-17.7S192.53,56,192.53,56Z"/><path class="cls-6" d="M186.19,66l11.62,22.72s-2.64,11.09-6.87,12.15-22.19-13.74-22.19-13.74Z"/><path class="cls-5" d="M196.75,97.16l21.67,28.53,51.78,38.57s37.51,7.93,29.05,13.74-32.75-5.29-32.75-5.29-52.31-28-63.41-39.62-31.7-31.17-31.7-31.17Z"/><path class="cls-2" d="M167.69,141.54l6.34,10,37.84-11.9a29.74,29.74,0,0,1,24.77,3c6.61,4.17,10.84,10.77,1.33,20.54-19,19.55-31.71,9-31.71,9s-63.93,30.11-74.49,15.32-11.1-22.19-11.1-22.19S161.35,140,167.69,141.54Z"/><path class="cls-6" d="M247,176.41s16.9,11.1-3.17,16.38-34.87-2.11-34.87-2.11-17.44,0-17.44-9,5.81-10,5.81-10l18,2.64S236.91,168.49,247,176.41Z"/><path class="cls-2" d="M213.62,28.83a17.67,17.67,0,0,0,5,1.79,4.55,4.55,0,0,0,4.59-2,6.27,6.27,0,0,0,.53-2.8c.06-2.9-.15-6-2-8.28-1.17-1.43-2.88-2.33-4.09-3.72a18,18,0,0,1-2.07-3.38c-2.35-4.43-5.84-8.68-10.69-10A23.3,23.3,0,0,0,198.64,0l-12.2.17a21.44,21.44,0,0,0-5.87.63c-3.93,1.19-6.79,4.5-9.41,7.66a47.53,47.53,0,0,0-5.4,7.44,26.26,26.26,0,0,0-3.1,12.81,12.19,12.19,0,0,0,.44,3.39,19.23,19.23,0,0,0,1.33,2.92c2.29,4.5,3.65,10.11,1.07,14.45,4.48-1.83,8.91-4.23,11.87-8.06,1.32-1.71,2.35-3.72,4.12-5s4.63-1.36,5.76.48a5.36,5.36,0,0,1,.58,2.42,10.9,10.9,0,0,0,.67,4.08,3,3,0,0,0,3.32,1.9c2.3-.65,2.08-4.18,3.85-5.78,1.35-1.22,3.42-1,5.15-1.54a7.65,7.65,0,0,0,4.39-4.32c.65-1.47.64-5.31,1.88-6.11C208.64,26.61,212.18,28.19,213.62,28.83Z"/><path class="cls-6" d="M154.45,52.12a6.32,6.32,0,0,1,3.26,0c3.39.91,11,3.32,12.63,7,2.11,4.75,9.51,12.15,9.51,12.15s10,10,7.92,16.91-10,14.79-10,14.79,2.12,32.76-8.45,41.21-14.79,2.65-14.79,10.57-32.76,32.76-39.1,17.44c0,0,3.17-28.53,2.11-38.57S118,62,154.45,52.12Z"/><path class="cls-6" d="M171.39,65.46s32.23,23.77,26.42,33.81c0,0-19.55,9.51-23.78,9s-20.6-19-24.83-20.61S142.86,57.53,171.39,65.46Z"/><path class="cls-2" d="M82.26,86.76c-5,1.7-9.55,5.66-10.58,10.85-.47,2.4-.18,4.9-.58,7.32-.93,5.62-5.34,9.9-9.4,13.88s-8.26,8.61-8.55,14.29c-.33,6.22,4.18,12,3.4,18.22-.91,7.18-8.49,11.84-10.36,18.82-1.25,4.67.28,9.7,2.8,13.82,4.81,7.85,13,13.18,21.78,16s18.08,3.46,27.29,3.56c11.21.11,23.38-.85,31.8-8.25a25.5,25.5,0,0,0,8.46-16.59c.8-8.57-2.78-17.42-.31-25.67,1.55-5.19,5.45-9.93,4.87-15.32s-5.17-9-8.33-13.25c-2.94-4-4.73-8.66-6.48-13.29l-6-15.82C120.89,92.26,119.6,89,117,87c-4.91-3.83-12.82-3.08-18.57-2.29C93.07,85.39,87.39,85,82.26,86.76Z"/><path class="cls-5" d="M84.14,132.86s2.66,8.64-17.27,18.6,2,20.6,2,20.6l23.25,5.31s23.92-3.32,26.58-7.31,7.3-17.27,6-19.26a31,31,0,0,0-3.33-4s-15.94-2.66-15.28-10S84.14,132.86,84.14,132.86Z"/><path class="cls-4" d="M84.14,132.86s2.66,8.64-17.27,18.6,2,20.6,2,20.6l23.25,5.31s23.92-3.32,26.58-7.31,7.3-17.27,6-19.26a31,31,0,0,0-3.33-4s-15.94-2.66-15.28-10S84.14,132.86,84.14,132.86Z"/><circle class="cls-5" cx="97.09" cy="125.22" r="21.26" transform="translate(-42.06 201) rotate(-80.78)"/><path class="cls-7" d="M94.77,170.06s-25.61-1.87-26.09-19.53c0,0-9.12-1.06-11.78,1.6s-11.29,4.65-11.29,11.29S60.22,190,60.22,190s8,26.58,4.65,31.23-4,16.61-4,16.61,33.21-2.66,38.53,0,26.57,2.66,27.9,0S126,202,126,202s6-8,4.65-17.27l16-18.6s-6-17.94-15.28-17.94c0,0-12.62-3.32-13-1.66S124.67,166.74,94.77,170.06Z"/><path class="cls-5" d="M35,228.53s6,9.3,21.26,11.29,17.93-3.32,16.6-4.65-17.27-7.31-17.27-7.31l-9.3-7.3Z"/><path class="cls-5" d="M143.93,220.56l-17.27,10s-22.59-1.33-14,5.32,24.58,4,24.58,4l15.28-7.31Z"/><path class="cls-2" d="M57.56,237.83S41.62,277,60.89,283s72.41,4.65,84.37-3.33,15.28-18.6,13.29-21.92S143.27,245.14,134,244.47,57.56,237.83,57.56,237.83Z"/><path class="cls-8" d="M57.56,237.83S41.62,277,60.89,283s72.41,4.65,84.37-3.33,15.28-18.6,13.29-21.92S143.27,245.14,134,244.47,57.56,237.83,57.56,237.83Z"/><path class="cls-2" d="M132.83,240.26s56.28-20.37,55.61,4.21-35.87,31.23-35.87,31.23L141.94,277l-58.47,2s2-10.63-2.65-12c0,0,15.28-4,15.94-4.65s38.54-14,41.19-14.61,10.63-6,16.61-5.32c0,0,6.65-5.31,13.95-4l-20.59,1.33Z"/><path class="cls-4" d="M132.83,240.26s56.28-20.37,55.61,4.21-35.87,31.23-35.87,31.23L141.94,277l-58.47,2s2-10.63-2.65-12c0,0,15.28-4,15.94-4.65s38.54-14,41.19-14.61,10.63-6,16.61-5.32c0,0,6.65-5.31,13.95-4l-20.59,1.33Z"/><polygon class="cls-2" points="122.89 243.56 129.98 259.75 173.16 244.47 176.49 235.84 165.19 233.84 142.49 237.83 132.64 240.49 122.89 243.56"/><polygon class="cls-4" points="122.89 243.56 129.98 259.75 173.16 244.47 176.49 235.84 165.19 233.84 142.49 237.83 132.64 240.49 122.89 243.56"/><path class="cls-2" d="M31,263.08S43.61,279,58.23,283s22.59-1.33,22.59-1.33l-4.65-18.6-2-12-8.63-6-17.28-8-20.59-6.65s-8.64-1.33-8.64,0,8,21.26,8,21.26Z"/><path class="cls-3" d="M46.27,271.71s2.66,19.27,6,20.6,13.29-1.33,15.94-2.66,11.69-7.46,11.69-7.46S48.26,270.38,46.27,271.71Z"/><polygon class="cls-5" points="106.73 273.71 119.35 275.7 118.02 290.98 100.42 286.7 106.73 273.71"/><path class="cls-3" d="M114.64,278s-5.92,7,.06,11l4,3.32s13.28,2.66,14.61,4,6.65-2,6.65-2,.66-19.93,0-21.26-8.64-2.66-9.31-1.33-8.63,3.32-13.28,2Z"/><path class="cls-2" d="M61.55,242.48S15,215.24,7.74,225.21s-15.28,23.91,6,34.54,87.69,32.56,87.69,32.56,10-15.28,10-19.27c0,0-35.21-15.94-41.19-17.27S40.29,239.16,37,237.83s-8-5.32-8-5.32Z"/><path class="cls-7" d="M48.26,160.1l-2.65,2S39.63,177.37,39,186s-8.64,35.21-8,38.53,1.33,6,5.31,9.3c0,0,5.32-12,14.62-10l11.29-41.19Z"/><path class="cls-7" d="M141.27,160.1l5.32,6s3.32,8,3.32,10,6.65,31.23,7.31,32.56,3.32,17.94,0,21.92-9.3,6.65-9.3,6.65,4-14-8.64-14.62l1.33-5.32-12-39.86Z"/><path class="cls-1" d="M49.59,205.84v35a8.42,8.42,0,0,0,8.29,8.42l73.19,1.08a8.42,8.42,0,0,0,8.53-8.09l1.34-35a8.41,8.41,0,0,0-8.08-8.73h-.2l-74.53-1.08a8.41,8.41,0,0,0-8.54,8.29Z"/><ellipse class="cls-2" cx="98.34" cy="112.21" rx="22.88" ry="12.32"/><circle class="cls-3" cx="94.44" cy="224.21" r="5.31"/></g></g></svg>