<svg xmlns="http://www.w3.org/2000/svg" viewBox="0 0 384.29 433.5"><defs><style>.cls-1{fill:#2f2e41;}.cls-2{fill:#ffb9b9;}.cls-3{opacity:0.1;}.cls-3,.cls-5{isolation:isolate;}.cls-4{fill:#1565c0;}.cls-5{opacity:0.05;}.cls-6{fill:#f2f2f2;}.cls-7{fill:#3f3d56;}</style></defs><g id="Layer_2" data-name="Layer 2"><g id="e4ebe004-ac85-4249-bdf7-a9685d9ba22f"><path class="cls-1" d="M167.75,5.59C157.52,9,148.26,17.11,146.17,27.7c-1,4.9-.37,10-1.19,14.94-1.9,11.44-10.88,20.18-19.16,28.3S109,88.49,108.37,100.07c-.66,12.68,8.54,24.57,6.95,37.17-1.85,14.64-17.31,24.12-21.14,38.37-2.55,9.52.58,19.77,5.72,28.18,9.81,16,26.57,26.88,44.42,32.71s36.86,7.05,55.63,7.25c22.86.24,47.68-1.73,64.86-16.81a52,52,0,0,0,17.25-33.83c1.63-17.48-5.66-35.54-.63-52.35,3.17-10.59,11.11-20.25,9.92-31.24-1.16-10.73-10.54-18.35-17-27-6-8.1-9.65-17.67-13.23-27.1L248.93,23.13c-2.4-6.34-5-13-10.4-17.17-10-7.8-26.15-6.27-37.87-4.66C189.79,2.79,178.2,2.06,167.75,5.59Z"/><path class="cls-2" d="M171.57,99.58s5.42,17.62-35.22,37.94,4.06,42,4.06,42l47.42,10.84s48.77-6.77,54.19-14.9,14.9-35.22,12.2-39.29a64.23,64.23,0,0,0-6.78-8.13s-32.51-5.42-31.16-20.32S171.57,99.58,171.57,99.58Z"/><path class="cls-3" d="M171.57,99.58s5.42,17.62-35.22,37.94,4.06,42,4.06,42l47.42,10.84s48.77-6.77,54.19-14.9,14.9-35.22,12.2-39.29a64.23,64.23,0,0,0-6.78-8.13s-32.51-5.42-31.16-20.32S171.57,99.58,171.57,99.58Z"/><circle class="cls-2" cx="197.99" cy="84" r="43.35" transform="translate(83.36 265.98) rotate(-80.78)"/><path class="cls-4" d="M193.25,175.45s-52.21-3.82-53.2-39.84c0,0-18.6-2.16-24,3.26s-23,9.49-23,23,29.8,54.19,29.8,54.19,16.26,54.19,9.49,63.68-8.13,33.87-8.13,33.87,67.74-5.42,78.57,0,54.19,5.42,56.9,0-2.71-73.16-2.71-73.16,12.2-16.26,9.49-35.22l32.51-37.94s-12.19-36.58-31.16-36.58c0,0-25.74-6.77-26.41-3.38S254.22,168.68,193.25,175.45Z"/><path class="cls-2" d="M71.32,294.67s12.19,19,43.35,23,36.58-6.77,33.87-9.48-35.22-14.9-35.22-14.9l-19-14.91Z"/><path class="cls-2" d="M293.5,278.41l-35.22,20.32s-46.06-2.7-28.45,10.84S280,317.7,280,317.7l31.16-14.9Z"/><path class="cls-1" d="M117.38,313.64s-32.51,79.93,6.78,92.12,147.67,9.49,172-6.77,31.16-37.94,27.1-44.71-31.16-25.74-50.13-27.1S117.38,313.64,117.38,313.64Z"/><path class="cls-5" d="M117.38,313.64s-32.51,79.93,6.78,92.12,147.67,9.49,172-6.77,31.16-37.94,27.1-44.71-31.16-25.74-50.13-27.1S117.38,313.64,117.38,313.64Z"/><path class="cls-1" d="M270.86,318.6s114.77-41.54,113.41,8.58-73.15,63.68-73.15,63.68l-21.68,2.71-119.22,4.06s4.06-21.67-5.42-24.38c0,0,31.16-8.13,32.51-9.49s78.58-28.45,84-29.8,21.68-12.19,33.87-10.84c0,0,13.55-10.84,28.45-8.13l-42,2.71Z"/><path class="cls-3" d="M270.86,318.6s114.77-41.54,113.41,8.58-73.15,63.68-73.15,63.68l-21.68,2.71-119.22,4.06s4.06-21.67-5.42-24.38c0,0,31.16-8.13,32.51-9.49s78.58-28.45,84-29.8,21.68-12.19,33.87-10.84c0,0,13.55-10.84,28.45-8.13l-42,2.71Z"/><polygon class="cls-1" points="250.59 325.33 265.05 358.35 353.11 327.19 359.89 309.57 336.86 305.51 290.55 313.64 270.47 319.06 250.59 325.33"/><polygon class="cls-3" points="250.59 325.33 265.05 358.35 353.11 327.19 359.89 309.57 336.86 305.51 290.55 313.64 270.47 319.06 250.59 325.33"/><path class="cls-1" d="M63.19,365.12s25.74,32.51,55.55,40.64,46.06-2.71,46.06-2.71l-9.48-37.93-4.07-24.39-17.61-12.19L98.42,312.28l-42-13.55s-17.61-2.7-17.61,0,16.25,43.36,16.25,43.36Z"/><path class="cls-6" d="M94.35,382.73s5.42,39.29,12.2,42,27.09-2.71,32.51-5.42S162.9,404.1,162.9,404.1,98.42,380,94.35,382.73Z"/><polygon class="cls-2" points="217.64 386.8 243.38 390.86 240.67 422.02 204.76 413.3 217.64 386.8"/><path class="cls-6" d="M233.76,395.47s-12.06,14.36.13,22.48l8.13,6.78s27.1,5.42,29.81,8.13,13.55-4.07,13.55-4.07,1.35-40.64,0-43.35-17.62-5.42-19-2.71-17.61,6.77-27.1,4.06Z"/><path class="cls-1" d="M125.51,323.12S30.68,267.57,15.78,287.9-15.38,336.67,28,358.34,206.8,424.73,206.8,424.73s20.32-31.16,20.32-39.29c0,0-71.8-32.51-84-35.22s-61-33.87-67.73-36.58S59.13,302.8,59.13,302.8Z"/><path class="cls-4" d="M98.42,155.13,93,159.19S80.8,190.35,79.45,208s-17.61,71.8-16.26,78.57,2.71,12.19,10.84,19c0,0,10.84-24.39,29.81-20.32l23-84Z"/><path class="cls-4" d="M288.08,155.13l10.84,12.19s6.78,16.26,6.78,20.32,13.54,63.68,14.9,66.39,6.77,36.58,0,44.7-19,13.55-19,13.55,8.13-28.45-17.61-29.8l2.71-10.84-24.39-81.29Z"/><path class="cls-7" d="M101.13,248.4v71.36A17.15,17.15,0,0,0,118,336.92l149.24,2.21a17.15,17.15,0,0,0,17.39-16.5l2.75-71.36a17.17,17.17,0,0,0-16.49-17.81h-.41l-152-2.2a17.15,17.15,0,0,0-17.4,16.9Z"/><ellipse class="cls-1" cx="200.53" cy="57.49" rx="46.66" ry="25.13"/><circle class="cls-6" cx="192.57" cy="285.86" r="10.84"/></g></g></svg>