<svg xmlns="http://www.w3.org/2000/svg" viewBox="0 0 138.21 480.8"><defs><style>.cls-1{fill:#2f2e41;}.cls-2{fill:#9f616a;}.cls-3{fill:#ffb8b8;}.cls-4{fill:#6c63ff;}</style></defs><g id="Layer_2" data-name="Layer 2"><g id="adc239e9-c38c-4229-b70b-50c7df3ef2aa"><path class="cls-1" d="M36.67,178.21l-2.82,16.21S20.45,231.8,24,267.05,30.32,327,30.32,327,19.74,415.84,24,447.57c0,0,11.29,15.51,26.09-.71l11.29-117,12-83.21,10.58,93.08,7,105.77s9.87,10.58,24.68,1.41L114.23,327s12.69-101.54,10.58-110-16.22-41.6-16.22-41.6Z"/><path class="cls-1" d="M29.62,448.27l.7,14.81S19.57,479.84,33,479.84h0c9.69,0,18.45,4.33,17.3-5.29L48.65,461l-2.82-14.8Z"/><path class="cls-1" d="M111.33,448.27l-.71,14.81s10.75,16.76-2.65,16.76h0c-9.69,0-18.45,4.33-17.3-5.29L92.29,461l2.82-14.8Z"/><circle class="cls-2" cx="69.46" cy="33.3" r="22.56"/><path class="cls-3" d="M59.58,48.11s2.82,32.43-5.64,37.37S89.2,88.3,89.2,88.3,79.33,50.22,80,46Z"/><path class="cls-4" d="M102.24,68.91s-28.2-12.69-67.69,0c0,0-17.27,4.58-19.39,10.22S38.78,149.3,36,160.58a61.44,61.44,0,0,0-1.41,21.15s62.05-8.46,76.86-2.11c0,0-5.64-18.34-4.23-31s13.4-71.92,13.4-71.92S114.23,70.32,102.24,68.91Z"/><path class="cls-2" d="M126.92,236.73s-10.57,32.44.71,33.14S134,245.19,134,245.19l-1.41-8.46Z"/><path class="cls-4" d="M105.77,80.9l14.81-4.23S129,83,129,91.47s-1.41,62.76-1.41,62.76l10.58,81.09L122,241l-19-87.43Z"/><path class="cls-2" d="M11.28,236.73s10.58,32.44-.7,33.14-6.35-24.68-6.35-24.68l1.41-8.46Z"/><path class="cls-4" d="M32.44,80.9,17.63,76.67S9.17,83,9.17,91.47s1.41,62.76,1.41,62.76L0,235.32,16.22,241l19-87.43Z"/><path class="cls-1" d="M79.33.16s-19.75-3.53-24,22.56-2.11,36-9.16,38.79-9.17,6.34-7.76,12,6.35,7.76-.71,18.34S53.24,99.58,71.57,108s60.64-3.52,55-13.39S111.76,89,116,77.72s5.65-13.39,0-20.44S118.81,6.51,79.33.16Z"/></g></g></svg>