<svg xmlns="http://www.w3.org/2000/svg" viewBox="0 0 86.74 383.07"><defs><style>.cls-1{fill:#2f2e41;}.cls-2{fill:#3f3d56;}.cls-3{fill:#ffb9b9;}.cls-4{fill:#1565c0;}.cls-5{opacity:0.1;isolation:isolate;}</style></defs><g id="Layer_2" data-name="Layer 2"><g id="aa6a79dc-91b4-4c18-945f-8bd34f390323"><path class="cls-1" d="M32,338.81s-3.68,16-2.46,22.13,1.23,19.67,1.23,19.67h3.69V365.86s9.84,4.91,12.3,12.29,28.27,4.92,29.5,2.46S64,373.23,64,373.23L52.93,340Z"/><path class="cls-1" d="M23.43,193.75s6.14,22.13,6.14,30.73-4.91,119.25,0,119.25,24.59,2.46,25.82-2.46-2.46-50.4,0-55.32S75.06,176.54,73.83,175.31,29.57,170.39,23.43,193.75Z"/><path class="cls-2" d="M21,172.85s-11.06,29.5-1.23,29.5,16-8.6,23.36-6.14,29.5-28.28,29.5-28.28Z"/><circle class="cls-3" cx="67.07" cy="29.63" r="19.67"/><path class="cls-3" d="M76.9,35.78s-8.6,28.28-6.14,32S47.4,66.51,47.4,66.51,56,43.16,54.78,38.24,76.9,35.78,76.9,35.78Z"/><path class="cls-4" d="M62.77,54.84S51.7,51.15,48,54.84s-17.21,91-25.81,99.57-14.75,20.9-7.38,22.13,67.62,8.6,70.07,4.92,1.85-40,.62-48.56S75.06,56.06,62.77,54.84Z"/><polygon class="cls-3" points="52.93 176.54 57.85 188.83 68.91 180.23 67.68 171.62 52.93 176.54"/><path class="cls-5" d="M47.4,75.12s-.61-15.37-8,4.3-23.36,45.49-9.84,65.16,13.9,28.25,20.29,27.66,26.43,6.76,26.43,4.3S52.93,136,52.93,136a22.63,22.63,0,0,1,6.15-19.67C67.68,107.7,63.38,78.81,47.4,75.12Z"/><path class="cls-4" d="M55.39,59.75S41.87,57.29,34.49,77s-23.36,45.49-9.83,65.16,20.41,39.29,26.8,38.7,19.91-4.28,19.91-6.74S48,133.51,48,133.51a22.66,22.66,0,0,1,6.15-19.67C62.77,105.24,71.37,63.44,55.39,59.75Z"/><path class="cls-1" d="M61,.2c-10.11-1.43-20.08,5-25.68,13.53s-7.62,18.89-9.09,29a35.08,35.08,0,0,1-2.08,8.92c-2.45,5.62-8,9.86-8.89,15.92-.57,3.83.86,7.63,1.61,11.44,2,10.09-1,20.71-6.34,29.48-2.4,3.91-5.91,7.87-10.5,8L9.62,118a16.79,16.79,0,0,1-8,8.14A48.76,48.76,0,0,0,44.3,79.7c.14-3.49,0-7.22,1.86-10.15,1.64-2.54,4.5-3.94,7.09-5.48,8.92-5.27,16.38-14,17.57-24.3.52-4.53-.17-9.05-.35-13.58-.19-4.76,7.81-8,8.89-12.54C81,6.72,67.34,1.1,61,.2Z"/></g></g></svg>