<svg xmlns="http://www.w3.org/2000/svg" viewBox="0 0 486.47 333.5"><defs><style>.cls-1{fill:#ffb9b9;}.cls-2{fill:#6c63ff;}.cls-3{fill:#3f3d56;}.cls-4{fill:#fff;}.cls-5{fill:#e6e6e6;}.cls-6{fill:#2f2e41;}.cls-7{fill:#ffb8b8;}</style></defs><g id="Layer_2" data-name="Layer 2"><g id="e214ade4-f01b-42f1-81dc-150adaeb3ca1"><path class="cls-1" d="M387.47,196.5l-36.75-34.3L333.3,146.12A14.13,14.13,0,0,1,336,123.39h0a14.14,14.14,0,0,1,19.24,5.45c.22.4.43.82.61,1.24l5.74,13.15,35.59,36.93Z"/><path class="cls-2" d="M392.27,174.25l-12.9,21.5,52.39,32.13c46.18-33.2,55.32-44,44-96.88l-9-9-43.52,70.58Z"/><path class="cls-3" d="M316.2,114.49a3.18,3.18,0,0,0-4-.39L288,129.9a3.19,3.19,0,0,0-.94,4.41,3.13,3.13,0,0,0,.43.52l61.69,61.43a3.19,3.19,0,0,0,4.51,0l0,0,20.22-20.93a3.21,3.21,0,0,0-.07-4.5Z"/><path class="cls-4" d="M292.75,131.59l2.51-1.6a2.39,2.39,0,0,0,3.44,3.14L315,122a2.4,2.4,0,0,0-.64-4.25l1.3-.83a.86.86,0,0,1,1.08.13l54.66,53.71a.87.87,0,0,1,0,1.23h0L351.48,191.3a.89.89,0,0,1-1.22,0L292.6,132.94a.87.87,0,0,1,0-1.23A.44.44,0,0,1,292.75,131.59Z"/><polygon class="cls-2" points="355.82 158.86 339.06 174.66 299.18 135.26 319.42 122.09 355.82 158.86"/><path class="cls-5" d="M300.73,145a.57.57,0,0,0,0-.82l-3.49-3.49a.58.58,0,0,0-.82.82l3.49,3.49A.59.59,0,0,0,300.73,145Z"/><path class="cls-5" d="M306.6,150l-3.48-3.48a.58.58,0,0,0-.82.82h0l3.48,3.48a.58.58,0,0,0,.82-.82Z"/><circle class="cls-2" cx="355.44" cy="172.43" r="3.92"/><path class="cls-5" d="M103.76,300.5l-19.9,5.25h0a24.83,24.83,0,0,1-31.64,11.73l-.43-.18a29.66,29.66,0,0,1-7.3-4.46c-8.36-6.78-22.28-10.27-40.74-11.1A5.34,5.34,0,0,1,0,296.36H0a5.33,5.33,0,0,1,4.65-5l99.55-13Z"/><path class="cls-6" d="M361.87,318.13c-52.05-8.35-99.47-21.86-139.23-43.91L99.24,304.51l.45-27.06,96.46-33.84a122.76,122.76,0,0,1,50.76-6.48l115,21.33Z"/><path class="cls-5" d="M163.43,329h0a6.33,6.33,0,0,1,2.6-7.12l46.67-24.53L224,268l19.44,12.21L238,301.86l1.29,9a19.86,19.86,0,0,1-16.85,22.46,20.31,20.31,0,0,1-2.81.2H169.49A6.32,6.32,0,0,1,163.43,329Z"/><path class="cls-6" d="M424.71,301.41c-56.36,70.06-95.14-6.25-133.36-87.25l-46.1,75-28-19.89L265.55,163a18.2,18.2,0,0,1,24.1-9,18.49,18.49,0,0,1,4.84,3.22l67.38,75.07,12.66-.9Z"/><circle class="cls-1" cx="427.87" cy="67.7" r="33.45"/><path class="cls-1" d="M470.36,127.37l-37.07,8.14a223.24,223.24,0,0,0-15.37-44.3l34.36-12.66A237.27,237.27,0,0,0,470.36,127.37Z"/><path class="cls-2" d="M427.87,310l-66-77.75,26.88-44.67c2.83-20.09,13.2-35.89,29.17-48.5l10.85-18,32.55-13.56h0a66.61,66.61,0,0,1,19.76,78.36Z"/><path class="cls-1" d="M370.91,224.11l-39.78-30.74L312.29,179a14.14,14.14,0,0,1-2.66-19.82,13.66,13.66,0,0,1,3.23-3.07h0a14.13,14.13,0,0,1,19.66,3.64,12.81,12.81,0,0,1,.72,1.18l6.93,12.56,38.88,33.45Z"/><path class="cls-2" d="M373.62,201.5l-10.84,22.61,55.14,27.12c42.9-37.35,66.82-73.17,50.63-124.76l-20.79,5.42-41.59,85Z"/><circle class="cls-6" cx="471.3" cy="15.83" r="13.32"/><path class="cls-6" d="M457.57,12.57A13.33,13.33,0,0,1,470.88.12c-.27,0-.54-.07-.82-.09a13.32,13.32,0,1,0-1.71,26.58c.28,0,.55,0,.83,0A13.3,13.3,0,0,1,457.57,12.57Z"/><path class="cls-6" d="M457.5,18.26c-11.88-9.86-45.95,2.67-48.15,9.29-16.06,2.19-28.22,11.56-28.22,28.23h0c9.55,3.91,20.41,3.43,32.15,0C432,71,433.28,90.2,421.9,112.22l14,.28,17.36-25.36.83,25.73,32.09-.65V75.35A77.05,77.05,0,0,0,478,40C473,30.31,465.19,24.64,457.5,18.26Z"/><ellipse class="cls-7" cx="427.61" cy="74.49" rx="6.37" ry="8.92"/></g></g></svg>